<mxfile host="app.diagrams.net" modified="2021-06-03T05:48:44.150Z" agent="5.0 (Macintosh; Intel Mac OS X 10_15_7) AppleWebKit/537.36 (KHTML, like Gecko) Chrome/90.0.4430.212 Safari/537.36" etag="msE8oyVjVHrOmY2DhhTx" version="14.7.4" type="github">
  <diagram id="Z7WK8l2Xs5BSavcxxwaW" name="Page-1">
    <mxGraphModel dx="1188" dy="641" grid="1" gridSize="10" guides="1" tooltips="1" connect="1" arrows="1" fold="1" page="1" pageScale="1" pageWidth="827" pageHeight="1169" math="0" shadow="0">
      <root>
        <mxCell id="0" />
        <mxCell id="1" parent="0" />
        <mxCell id="eUMr9UxDdL_X1GazEhiE-20" value="" style="rounded=0;whiteSpace=wrap;html=1;" vertex="1" parent="1">
          <mxGeometry x="160" y="430" width="100" height="35" as="geometry" />
        </mxCell>
        <mxCell id="eUMr9UxDdL_X1GazEhiE-1" value="easy_feature 迁移测试方案" style="text;html=1;strokeColor=none;fillColor=none;align=center;verticalAlign=middle;whiteSpace=wrap;rounded=0;" vertex="1" parent="1">
          <mxGeometry x="259" y="200" width="310" height="20" as="geometry" />
        </mxCell>
        <mxCell id="eUMr9UxDdL_X1GazEhiE-2" value="" style="shape=flexArrow;endArrow=classic;html=1;startArrow=none;" edge="1" parent="1" source="eUMr9UxDdL_X1GazEhiE-3">
          <mxGeometry width="50" height="50" relative="1" as="geometry">
            <mxPoint x="80" y="250" as="sourcePoint" />
            <mxPoint x="720" y="250" as="targetPoint" />
          </mxGeometry>
        </mxCell>
        <mxCell id="eUMr9UxDdL_X1GazEhiE-3" value="第一步：model meta 验证测试" style="rounded=0;whiteSpace=wrap;html=1;" vertex="1" parent="1">
          <mxGeometry x="90" y="240" width="170" height="20" as="geometry" />
        </mxCell>
        <mxCell id="eUMr9UxDdL_X1GazEhiE-4" value="" style="shape=flexArrow;endArrow=none;html=1;" edge="1" parent="1" target="eUMr9UxDdL_X1GazEhiE-3">
          <mxGeometry width="50" height="50" relative="1" as="geometry">
            <mxPoint x="80" y="250" as="sourcePoint" />
            <mxPoint x="720" y="250" as="targetPoint" />
          </mxGeometry>
        </mxCell>
        <mxCell id="eUMr9UxDdL_X1GazEhiE-5" value="feature-engineer" style="rounded=1;whiteSpace=wrap;html=1;" vertex="1" parent="1">
          <mxGeometry x="119" y="303" width="120" height="50" as="geometry" />
        </mxCell>
        <mxCell id="eUMr9UxDdL_X1GazEhiE-6" value="meta-protocol&lt;br&gt;格式协议" style="rounded=1;whiteSpace=wrap;html=1;" vertex="1" parent="1">
          <mxGeometry x="139" y="353" width="80" height="40" as="geometry" />
        </mxCell>
        <mxCell id="eUMr9UxDdL_X1GazEhiE-7" value="" style="endArrow=classic;html=1;" edge="1" parent="1">
          <mxGeometry width="50" height="50" relative="1" as="geometry">
            <mxPoint x="40" y="310" as="sourcePoint" />
            <mxPoint x="110" y="310" as="targetPoint" />
          </mxGeometry>
        </mxCell>
        <mxCell id="eUMr9UxDdL_X1GazEhiE-10" value="raw_feature.csv" style="edgeLabel;html=1;align=center;verticalAlign=middle;resizable=0;points=[];" vertex="1" connectable="0" parent="eUMr9UxDdL_X1GazEhiE-7">
          <mxGeometry x="-0.6449" relative="1" as="geometry">
            <mxPoint as="offset" />
          </mxGeometry>
        </mxCell>
        <mxCell id="eUMr9UxDdL_X1GazEhiE-8" value="" style="endArrow=classic;html=1;" edge="1" parent="1">
          <mxGeometry width="50" height="50" relative="1" as="geometry">
            <mxPoint x="40" y="330" as="sourcePoint" />
            <mxPoint x="110" y="329" as="targetPoint" />
          </mxGeometry>
        </mxCell>
        <mxCell id="eUMr9UxDdL_X1GazEhiE-9" value="model.yaml" style="edgeLabel;html=1;align=center;verticalAlign=middle;resizable=0;points=[];" vertex="1" connectable="0" parent="eUMr9UxDdL_X1GazEhiE-8">
          <mxGeometry x="-0.8735" relative="1" as="geometry">
            <mxPoint y="-2" as="offset" />
          </mxGeometry>
        </mxCell>
        <mxCell id="eUMr9UxDdL_X1GazEhiE-11" value="第二步：ingest数据/sdk导模型" style="rounded=0;whiteSpace=wrap;html=1;" vertex="1" parent="1">
          <mxGeometry x="300" y="240" width="170" height="20" as="geometry" />
        </mxCell>
        <mxCell id="eUMr9UxDdL_X1GazEhiE-12" value="" style="rounded=1;whiteSpace=wrap;html=1;" vertex="1" parent="1">
          <mxGeometry x="290" y="410" width="140" height="80" as="geometry" />
        </mxCell>
        <mxCell id="eUMr9UxDdL_X1GazEhiE-13" value="" style="endArrow=classic;html=1;" edge="1" parent="1">
          <mxGeometry width="50" height="50" relative="1" as="geometry">
            <mxPoint x="200" y="443" as="sourcePoint" />
            <mxPoint x="290" y="443" as="targetPoint" />
          </mxGeometry>
        </mxCell>
        <mxCell id="eUMr9UxDdL_X1GazEhiE-15" value="MergeHiveTable" style="edgeLabel;html=1;align=center;verticalAlign=middle;resizable=0;points=[];" vertex="1" connectable="0" parent="eUMr9UxDdL_X1GazEhiE-13">
          <mxGeometry x="-0.8571" y="1" relative="1" as="geometry">
            <mxPoint as="offset" />
          </mxGeometry>
        </mxCell>
        <mxCell id="eUMr9UxDdL_X1GazEhiE-14" value="" style="shape=flexArrow;endArrow=classic;html=1;" edge="1" parent="1">
          <mxGeometry width="50" height="50" relative="1" as="geometry">
            <mxPoint x="239" y="338" as="sourcePoint" />
            <mxPoint x="369" y="408" as="targetPoint" />
            <Array as="points">
              <mxPoint x="369" y="338" />
            </Array>
          </mxGeometry>
        </mxCell>
        <mxCell id="eUMr9UxDdL_X1GazEhiE-19" value="验证可行" style="edgeLabel;html=1;align=center;verticalAlign=middle;resizable=0;points=[];" vertex="1" connectable="0" parent="eUMr9UxDdL_X1GazEhiE-14">
          <mxGeometry x="-0.3114" y="3" relative="1" as="geometry">
            <mxPoint as="offset" />
          </mxGeometry>
        </mxCell>
        <mxCell id="eUMr9UxDdL_X1GazEhiE-16" value="feature-engineer" style="rounded=1;whiteSpace=wrap;html=1;" vertex="1" parent="1">
          <mxGeometry x="290" y="410" width="80" height="30" as="geometry" />
        </mxCell>
        <mxCell id="eUMr9UxDdL_X1GazEhiE-17" value="meta-server" style="rounded=1;whiteSpace=wrap;html=1;" vertex="1" parent="1">
          <mxGeometry x="370" y="410" width="60" height="30" as="geometry" />
        </mxCell>
        <mxCell id="eUMr9UxDdL_X1GazEhiE-18" value="hive =&amp;gt;spark=&amp;gt;tfrecod" style="rounded=0;whiteSpace=wrap;html=1;" vertex="1" parent="1">
          <mxGeometry x="290" y="440" width="140" height="30" as="geometry" />
        </mxCell>
        <mxCell id="eUMr9UxDdL_X1GazEhiE-21" value="user-table" style="rounded=0;whiteSpace=wrap;html=1;" vertex="1" parent="1">
          <mxGeometry x="155" y="534" width="30" height="30" as="geometry" />
        </mxCell>
        <mxCell id="eUMr9UxDdL_X1GazEhiE-22" value="item-table" style="rounded=0;whiteSpace=wrap;html=1;" vertex="1" parent="1">
          <mxGeometry x="194" y="534" width="31" height="30" as="geometry" />
        </mxCell>
        <mxCell id="eUMr9UxDdL_X1GazEhiE-23" value="context-feature" style="rounded=0;whiteSpace=wrap;html=1;fillColor=#ffe6cc;strokeColor=#d79b00;" vertex="1" parent="1">
          <mxGeometry x="232" y="534" width="41" height="30" as="geometry" />
        </mxCell>
        <mxCell id="eUMr9UxDdL_X1GazEhiE-26" value="训练出模型" style="text;html=1;strokeColor=none;fillColor=none;align=center;verticalAlign=middle;whiteSpace=wrap;rounded=0;" vertex="1" parent="1">
          <mxGeometry x="330" y="470" width="80" height="20" as="geometry" />
        </mxCell>
        <mxCell id="eUMr9UxDdL_X1GazEhiE-30" value="" style="rounded=0;whiteSpace=wrap;html=1;" vertex="1" parent="1">
          <mxGeometry x="320.75" y="514" width="90" height="50" as="geometry" />
        </mxCell>
        <mxCell id="eUMr9UxDdL_X1GazEhiE-28" value="" style="aspect=fixed;html=1;points=[];align=center;image;fontSize=12;image=img/lib/mscae/Cache_Redis_Product.svg;" vertex="1" parent="1">
          <mxGeometry x="360.75" y="518" width="50" height="42" as="geometry" />
        </mxCell>
        <mxCell id="eUMr9UxDdL_X1GazEhiE-31" value="" style="rounded=0;whiteSpace=wrap;html=1;" vertex="1" parent="1">
          <mxGeometry x="322" y="569" width="90" height="50" as="geometry" />
        </mxCell>
        <mxCell id="eUMr9UxDdL_X1GazEhiE-29" value="" style="aspect=fixed;perimeter=ellipsePerimeter;html=1;align=center;shadow=0;dashed=0;spacingTop=3;image;image=img/lib/active_directory/sql_server.svg;" vertex="1" parent="1">
          <mxGeometry x="377.25" y="573" width="31.5" height="40.91" as="geometry" />
        </mxCell>
        <mxCell id="eUMr9UxDdL_X1GazEhiE-32" value="redis" style="text;html=1;strokeColor=none;fillColor=none;align=center;verticalAlign=middle;whiteSpace=wrap;rounded=0;" vertex="1" parent="1">
          <mxGeometry x="320.75" y="518" width="40" height="20" as="geometry" />
        </mxCell>
        <mxCell id="eUMr9UxDdL_X1GazEhiE-33" value="meta-server" style="text;html=1;strokeColor=none;fillColor=none;align=center;verticalAlign=middle;whiteSpace=wrap;rounded=0;" vertex="1" parent="1">
          <mxGeometry x="320" y="573" width="40" height="20" as="geometry" />
        </mxCell>
        <mxCell id="eUMr9UxDdL_X1GazEhiE-34" value="第三步：上在线打分和回流" style="rounded=0;whiteSpace=wrap;html=1;" vertex="1" parent="1">
          <mxGeometry x="500" y="240" width="170" height="20" as="geometry" />
        </mxCell>
        <mxCell id="eUMr9UxDdL_X1GazEhiE-35" value="" style="rounded=0;whiteSpace=wrap;html=1;" vertex="1" parent="1">
          <mxGeometry x="530" y="465" width="170" height="75" as="geometry" />
        </mxCell>
        <mxCell id="eUMr9UxDdL_X1GazEhiE-36" value="" style="shape=flexArrow;endArrow=classic;html=1;" edge="1" parent="1">
          <mxGeometry width="50" height="50" relative="1" as="geometry">
            <mxPoint x="414" y="590" as="sourcePoint" />
            <mxPoint x="544" y="540" as="targetPoint" />
            <Array as="points">
              <mxPoint x="544" y="590" />
            </Array>
          </mxGeometry>
        </mxCell>
        <mxCell id="eUMr9UxDdL_X1GazEhiE-37" value="online-features" style="text;html=1;strokeColor=none;fillColor=none;align=center;verticalAlign=middle;whiteSpace=wrap;rounded=0;" vertex="1" parent="1">
          <mxGeometry x="430" y="560" width="90" height="20" as="geometry" />
        </mxCell>
        <mxCell id="eUMr9UxDdL_X1GazEhiE-38" value="model-config" style="text;html=1;strokeColor=none;fillColor=none;align=center;verticalAlign=middle;whiteSpace=wrap;rounded=0;" vertex="1" parent="1">
          <mxGeometry x="430" y="599" width="90" height="20" as="geometry" />
        </mxCell>
        <mxCell id="eUMr9UxDdL_X1GazEhiE-39" value="" style="shape=flexArrow;endArrow=classic;html=1;" edge="1" parent="1">
          <mxGeometry width="50" height="50" relative="1" as="geometry">
            <mxPoint x="430" y="489.43" as="sourcePoint" />
            <mxPoint x="530" y="489.43" as="targetPoint" />
          </mxGeometry>
        </mxCell>
        <mxCell id="eUMr9UxDdL_X1GazEhiE-40" value="saved_model" style="text;html=1;strokeColor=none;fillColor=none;align=center;verticalAlign=middle;whiteSpace=wrap;rounded=0;" vertex="1" parent="1">
          <mxGeometry x="450" y="465" width="40" height="20" as="geometry" />
        </mxCell>
        <mxCell id="eUMr9UxDdL_X1GazEhiE-41" value="tf-serving" style="rounded=0;whiteSpace=wrap;html=1;" vertex="1" parent="1">
          <mxGeometry x="535" y="470" width="80" height="40" as="geometry" />
        </mxCell>
        <mxCell id="eUMr9UxDdL_X1GazEhiE-42" value="rtp-server" style="rounded=0;whiteSpace=wrap;html=1;" vertex="1" parent="1">
          <mxGeometry x="618" y="470" width="80" height="40" as="geometry" />
        </mxCell>
        <mxCell id="eUMr9UxDdL_X1GazEhiE-43" value="HIVE" style="rounded=0;whiteSpace=wrap;html=1;" vertex="1" parent="1">
          <mxGeometry x="60" y="700" width="700" height="60" as="geometry" />
        </mxCell>
        <mxCell id="eUMr9UxDdL_X1GazEhiE-44" value="" style="shape=flexArrow;endArrow=classic;html=1;" edge="1" parent="1">
          <mxGeometry width="50" height="50" relative="1" as="geometry">
            <mxPoint x="660" y="514" as="sourcePoint" />
            <mxPoint x="660" y="600" as="targetPoint" />
          </mxGeometry>
        </mxCell>
        <mxCell id="eUMr9UxDdL_X1GazEhiE-45" value="回流Log兼容转换" style="shape=process;whiteSpace=wrap;html=1;backgroundOutline=1;" vertex="1" parent="1">
          <mxGeometry x="598" y="599" width="120" height="51" as="geometry" />
        </mxCell>
        <mxCell id="eUMr9UxDdL_X1GazEhiE-46" value="" style="shape=flexArrow;endArrow=classic;html=1;" edge="1" parent="1">
          <mxGeometry width="50" height="50" relative="1" as="geometry">
            <mxPoint x="660" y="650" as="sourcePoint" />
            <mxPoint x="660" y="700" as="targetPoint" />
          </mxGeometry>
        </mxCell>
        <mxCell id="eUMr9UxDdL_X1GazEhiE-47" value="" style="endArrow=classic;html=1;" edge="1" parent="1">
          <mxGeometry width="50" height="50" relative="1" as="geometry">
            <mxPoint x="200" y="700" as="sourcePoint" />
            <mxPoint x="200" y="570" as="targetPoint" />
          </mxGeometry>
        </mxCell>
        <mxCell id="eUMr9UxDdL_X1GazEhiE-48" value="" style="endArrow=classic;html=1;exitX=0.059;exitY=-0.031;exitDx=0;exitDy=0;exitPerimeter=0;" edge="1" parent="1" source="eUMr9UxDdL_X1GazEhiE-43">
          <mxGeometry width="50" height="50" relative="1" as="geometry">
            <mxPoint x="490" y="600" as="sourcePoint" />
            <mxPoint x="150" y="450" as="targetPoint" />
            <Array as="points">
              <mxPoint x="101" y="450" />
            </Array>
          </mxGeometry>
        </mxCell>
        <mxCell id="eUMr9UxDdL_X1GazEhiE-51" value="" style="endArrow=none;dashed=1;html=1;exitX=0.016;exitY=-0.044;exitDx=0;exitDy=0;exitPerimeter=0;" edge="1" parent="1" source="eUMr9UxDdL_X1GazEhiE-43">
          <mxGeometry width="50" height="50" relative="1" as="geometry">
            <mxPoint x="490" y="600" as="sourcePoint" />
            <mxPoint x="71" y="390" as="targetPoint" />
          </mxGeometry>
        </mxCell>
      </root>
    </mxGraphModel>
  </diagram>
</mxfile>
